<svg width="286" height="181" viewBox="0 0 286 181" fill="none" xmlns="http://www.w3.org/2000/svg">
<g filter="url(#filter0_d_0_83)">
<rect x="3" y="3" width="279.685" height="174.167" rx="5.82677" fill="white"/>
</g>
<g filter="url(#filter1_d_0_83)">
<path d="M3 8.82677C3 5.60873 5.60873 3 8.82677 3H276.858C280.076 3 282.685 5.60874 282.685 8.82677V21.5778H3V8.82677Z" fill="#00252E"/>
</g>
<rect x="23.9763" y="8.80554" width="58.2677" height="6.96667" rx="1.45669" fill="#E1E8EE"/>
<rect x="254.717" y="9.38611" width="9.32283" height="1.16111" rx="0.580556" fill="#D8D8D8"/>
<rect x="254.717" y="11.7083" width="9.32283" height="1.16111" rx="0.580556" fill="#D8D8D8"/>
<rect x="254.717" y="14.0305" width="9.32283" height="1.16111" rx="0.580556" fill="#D8D8D8"/>
<ellipse cx="37.9606" cy="56.9917" rx="13.9843" ry="13.9333" fill="url(#paint0_linear_0_83)"/>
<rect x="68.2598" y="46.5417" width="33.5039" height="4.64444" rx="0.874016" fill="#E1E8EE"/>
<rect x="68.2598" y="55.8306" width="116.535" height="2.32222" rx="0.874016" fill="#E1E8EE"/>
<rect x="68.2598" y="60.475" width="106.824" height="2.32222" rx="0.874016" fill="#E1E8EE"/>
<rect x="68.2598" y="65.1195" width="97.1129" height="2.32222" rx="0.874016" fill="#E1E8EE"/>
<ellipse cx="202.276" cy="56.9917" rx="3.49606" ry="3.48333" fill="#A7B9C8"/>
<ellipse cx="220.921" cy="56.9917" rx="3.49606" ry="3.48333" fill="#A7B9C8"/>
<ellipse cx="211.598" cy="56.9917" rx="3.49606" ry="3.48333" fill="#A7B9C8"/>
<ellipse cx="230.244" cy="56.9917" rx="3.49606" ry="3.48333" fill="#A7B9C8"/>
<ellipse cx="239.567" cy="56.9917" rx="3.49606" ry="3.48333" fill="#A7B9C8"/>
<ellipse cx="37.0866" cy="95.5986" rx="13.1102" ry="13.0625" fill="url(#paint1_linear_0_83)"/>
<rect x="67.3857" y="85.1486" width="33.5039" height="4.64444" rx="0.874016" fill="#E1E8EE"/>
<rect x="67.3857" y="94.4375" width="116.535" height="2.32222" rx="0.874016" fill="#E1E8EE"/>
<rect x="67.3857" y="99.0819" width="106.824" height="2.32222" rx="0.874016" fill="#E1E8EE"/>
<rect x="67.3857" y="103.726" width="97.1129" height="2.32222" rx="0.874016" fill="#E1E8EE"/>
<ellipse cx="201.402" cy="95.5986" rx="3.49606" ry="3.48333" fill="#A7B9C8"/>
<ellipse cx="220.047" cy="95.5986" rx="3.49606" ry="3.48333" fill="#A7B9C8"/>
<ellipse cx="210.724" cy="95.5986" rx="3.49606" ry="3.48333" fill="#A7B9C8"/>
<ellipse cx="37.0866" cy="137.108" rx="13.1102" ry="13.0625" fill="url(#paint2_linear_0_83)"/>
<rect x="67.3857" y="126.658" width="33.5039" height="4.64444" rx="0.874016" fill="#E1E8EE"/>
<rect x="67.3857" y="135.947" width="116.535" height="2.32222" rx="0.874016" fill="#E1E8EE"/>
<rect x="67.3857" y="140.592" width="106.824" height="2.32222" rx="0.874016" fill="#E1E8EE"/>
<rect x="67.3857" y="145.236" width="97.1129" height="2.32222" rx="0.874016" fill="#E1E8EE"/>
<ellipse cx="201.402" cy="137.108" rx="3.49606" ry="3.48333" fill="#A7B9C8"/>
<ellipse cx="220.047" cy="137.108" rx="3.49606" ry="3.48333" fill="#A7B9C8"/>
<ellipse cx="210.724" cy="137.108" rx="3.49606" ry="3.48333" fill="#A7B9C8"/>
<ellipse cx="229.37" cy="137.108" rx="3.49606" ry="3.48333" fill="#A7B9C8"/>
<defs>
<filter id="filter0_d_0_83" x="0" y="0" width="285.685" height="180.167" filterUnits="userSpaceOnUse" color-interpolation-filters="sRGB">
<feFlood flood-opacity="0" result="BackgroundImageFix"/>
<feColorMatrix in="SourceAlpha" type="matrix" values="0 0 0 0 0 0 0 0 0 0 0 0 0 0 0 0 0 0 127 0" result="hardAlpha"/>
<feOffset/>
<feGaussianBlur stdDeviation="1.5"/>
<feColorMatrix type="matrix" values="0 0 0 0 0 0 0 0 0 0.145098 0 0 0 0 0.180392 0 0 0 0.181839 0"/>
<feBlend mode="normal" in2="BackgroundImageFix" result="effect1_dropShadow_0_83"/>
<feBlend mode="normal" in="SourceGraphic" in2="effect1_dropShadow_0_83" result="shape"/>
</filter>
<filter id="filter1_d_0_83" x="0" y="0" width="285.685" height="24.5778" filterUnits="userSpaceOnUse" color-interpolation-filters="sRGB">
<feFlood flood-opacity="0" result="BackgroundImageFix"/>
<feColorMatrix in="SourceAlpha" type="matrix" values="0 0 0 0 0 0 0 0 0 0 0 0 0 0 0 0 0 0 127 0" result="hardAlpha"/>
<feOffset/>
<feGaussianBlur stdDeviation="1.5"/>
<feColorMatrix type="matrix" values="0 0 0 0 0 0 0 0 0 0.145098 0 0 0 0 0.180392 0 0 0 0.181839 0"/>
<feBlend mode="normal" in2="BackgroundImageFix" result="effect1_dropShadow_0_83"/>
<feBlend mode="normal" in="SourceGraphic" in2="effect1_dropShadow_0_83" result="shape"/>
</filter>
<linearGradient id="paint0_linear_0_83" x1="8.29369" y1="45.352" x2="25.3011" y2="84.9029" gradientUnits="userSpaceOnUse">
<stop stop-color="#FAD961"/>
<stop offset="1" stop-color="#FF52C1"/>
</linearGradient>
<linearGradient id="paint1_linear_0_83" x1="23.9763" y1="82.5361" x2="23.9763" y2="108.661" gradientUnits="userSpaceOnUse">
<stop stop-color="#00C7FA"/>
<stop offset="1" stop-color="#007DFA"/>
</linearGradient>
<linearGradient id="paint2_linear_0_83" x1="16.9888" y1="132.044" x2="32.9532" y2="161.155" gradientUnits="userSpaceOnUse">
<stop stop-color="#FF52C1"/>
<stop offset="1" stop-color="#9952FF"/>
</linearGradient>
</defs>
</svg>
