<svg width="98" height="153" viewBox="0 0 98 153" fill="none" xmlns="http://www.w3.org/2000/svg">
<g filter="url(#filter0_d_0_127)">
<path fill-rule="evenodd" clip-rule="evenodd" d="M2.77173 7.34996C2.77173 4.6039 4.99785 2.37778 7.74391 2.37778H91.0279C93.774 2.37778 96.0001 4.6039 96.0001 7.34996V146.028C96.0001 148.774 93.774 151 91.0279 151H7.74391C4.99785 151 2.77173 148.774 2.77173 146.028V7.34996Z" fill="white"/>
</g>
<g filter="url(#filter1_d_0_127)">
<path fill-rule="evenodd" clip-rule="evenodd" d="M2.77173 7.34996C2.77173 4.6039 4.99785 2.37778 7.74391 2.37778H91.0279C93.774 2.37778 96.0001 4.6039 96.0001 7.34996V18.2308H2.77173V7.34996Z" fill="#00252E"/>
</g>
<rect x="12.1333" y="7.82727" width="30.2992" height="5.94489" rx="1.24304" fill="#E1E8EE"/>
<rect x="78.1001" y="8.32269" width="7.95549" height="0.990815" rx="0.495407" fill="#D8D8D8"/>
<rect x="78.1001" y="10.3043" width="7.95549" height="0.990815" rx="0.495407" fill="#D8D8D8"/>
<rect x="78.1001" y="12.2859" width="7.95549" height="0.990815" rx="0.495407" fill="#D8D8D8"/>
<ellipse cx="16.4646" cy="38.082" rx="4.37008" ry="4.35417" fill="url(#paint0_linear_0_127)"/>
<rect x="25.4961" y="34.5986" width="16.752" height="1.54815" rx="0.267918" fill="#E1E8EE"/>
<rect x="25.4961" y="37.6949" width="58.2677" height="0.774074" rx="0.267918" fill="#E1E8EE"/>
<rect x="25.4961" y="39.243" width="53.4121" height="0.774074" rx="0.267918" fill="#E1E8EE"/>
<rect x="25.4961" y="40.7912" width="48.5564" height="0.774074" rx="0.267918" fill="#E1E8EE"/>
<ellipse cx="16.4646" cy="78.1403" rx="4.37008" ry="4.35417" fill="url(#paint1_linear_0_127)"/>
<rect x="25.4961" y="74.657" width="16.752" height="1.54815" rx="0.267918" fill="#E1E8EE"/>
<rect x="25.4961" y="77.7533" width="58.2677" height="0.774074" rx="0.267918" fill="#E1E8EE"/>
<rect x="25.4961" y="79.3015" width="53.4121" height="0.774074" rx="0.267918" fill="#E1E8EE"/>
<rect x="25.4961" y="80.8495" width="48.5564" height="0.774074" rx="0.267918" fill="#E1E8EE"/>
<rect x="25.4961" y="47.9514" width="16.752" height="1.54815" rx="0.267918" fill="#E1E8EE"/>
<rect x="25.4961" y="51.0477" width="58.2677" height="0.774074" rx="0.267918" fill="#E1E8EE"/>
<rect x="25.4961" y="52.5959" width="53.4121" height="0.774074" rx="0.267918" fill="#E1E8EE"/>
<rect x="25.4961" y="54.144" width="48.5564" height="0.774074" rx="0.267918" fill="#E1E8EE"/>
<ellipse cx="16.4646" cy="51.4347" rx="4.37008" ry="4.35417" fill="url(#paint2_linear_0_127)"/>
<rect x="25.4961" y="88.0098" width="16.752" height="1.54815" rx="0.267918" fill="#E1E8EE"/>
<rect x="25.4961" y="91.1061" width="58.2677" height="0.774074" rx="0.267918" fill="#E1E8EE"/>
<rect x="25.4961" y="92.6542" width="53.4121" height="0.774074" rx="0.267918" fill="#E1E8EE"/>
<rect x="25.4961" y="94.2023" width="48.5564" height="0.774074" rx="0.267918" fill="#E1E8EE"/>
<ellipse cx="16.4646" cy="91.4931" rx="4.37008" ry="4.35417" fill="url(#paint3_linear_0_127)"/>
<rect x="25.4961" y="61.3042" width="16.752" height="1.54815" rx="0.267918" fill="#E1E8EE"/>
<rect x="25.4961" y="64.4005" width="58.2677" height="0.774074" rx="0.267918" fill="#E1E8EE"/>
<rect x="25.4961" y="65.9487" width="53.4121" height="0.774074" rx="0.267918" fill="#E1E8EE"/>
<rect x="25.4961" y="67.4968" width="48.5564" height="0.774074" rx="0.267918" fill="#E1E8EE"/>
<ellipse cx="16.4646" cy="64.7875" rx="4.37008" ry="4.35417" fill="url(#paint4_linear_0_127)"/>
<rect x="25.4961" y="101.363" width="16.752" height="1.54815" rx="0.267918" fill="#E1E8EE"/>
<rect x="25.4961" y="104.459" width="58.2677" height="0.774074" rx="0.267918" fill="#E1E8EE"/>
<rect x="25.4961" y="106.007" width="53.4121" height="0.774074" rx="0.267918" fill="#E1E8EE"/>
<rect x="25.4961" y="107.555" width="48.5564" height="0.774074" rx="0.267918" fill="#E1E8EE"/>
<ellipse cx="16.4646" cy="104.846" rx="4.37008" ry="4.35417" fill="url(#paint5_linear_0_127)"/>
<ellipse cx="16.4646" cy="118.199" rx="4.37008" ry="4.35417" fill="url(#paint6_linear_0_127)"/>
<rect x="25.4961" y="114.715" width="16.752" height="1.54815" rx="0.267918" fill="#E1E8EE"/>
<rect x="25.4961" y="117.812" width="58.2677" height="0.774074" rx="0.267918" fill="#E1E8EE"/>
<rect x="25.4961" y="119.36" width="53.4121" height="0.774074" rx="0.267918" fill="#E1E8EE"/>
<rect x="25.4961" y="120.908" width="48.5564" height="0.774074" rx="0.267918" fill="#E1E8EE"/>
<rect x="25.4961" y="128.068" width="16.752" height="1.54815" rx="0.267918" fill="#E1E8EE"/>
<rect x="25.4961" y="131.164" width="58.2677" height="0.774074" rx="0.267918" fill="#E1E8EE"/>
<rect x="25.4961" y="132.713" width="53.4121" height="0.774074" rx="0.267918" fill="#E1E8EE"/>
<rect x="25.4961" y="134.261" width="48.5564" height="0.774074" rx="0.267918" fill="#E1E8EE"/>
<ellipse cx="16.4646" cy="131.551" rx="4.37008" ry="4.35417" fill="url(#paint7_linear_0_127)"/>
<defs>
<filter id="filter0_d_0_127" x="0.771729" y="0.377777" width="97.2283" height="152.622" filterUnits="userSpaceOnUse" color-interpolation-filters="sRGB">
<feFlood flood-opacity="0" result="BackgroundImageFix"/>
<feColorMatrix in="SourceAlpha" type="matrix" values="0 0 0 0 0 0 0 0 0 0 0 0 0 0 0 0 0 0 127 0" result="hardAlpha"/>
<feOffset/>
<feGaussianBlur stdDeviation="1"/>
<feColorMatrix type="matrix" values="0 0 0 0 0 0 0 0 0 0.145098 0 0 0 0 0.180392 0 0 0 0.181839 0"/>
<feBlend mode="normal" in2="BackgroundImageFix" result="effect1_dropShadow_0_127"/>
<feBlend mode="normal" in="SourceGraphic" in2="effect1_dropShadow_0_127" result="shape"/>
</filter>
<filter id="filter1_d_0_127" x="0.771729" y="0.377777" width="97.2283" height="19.853" filterUnits="userSpaceOnUse" color-interpolation-filters="sRGB">
<feFlood flood-opacity="0" result="BackgroundImageFix"/>
<feColorMatrix in="SourceAlpha" type="matrix" values="0 0 0 0 0 0 0 0 0 0 0 0 0 0 0 0 0 0 127 0" result="hardAlpha"/>
<feOffset/>
<feGaussianBlur stdDeviation="1"/>
<feColorMatrix type="matrix" values="0 0 0 0 0 0 0 0 0 0.145098 0 0 0 0 0.180392 0 0 0 0.181839 0"/>
<feBlend mode="normal" in2="BackgroundImageFix" result="effect1_dropShadow_0_127"/>
<feBlend mode="normal" in="SourceGraphic" in2="effect1_dropShadow_0_127" result="shape"/>
</filter>
<linearGradient id="paint0_linear_0_127" x1="7.19366" y1="34.4445" x2="12.5085" y2="46.8042" gradientUnits="userSpaceOnUse">
<stop stop-color="#FAD961"/>
<stop offset="1" stop-color="#FF52C1"/>
</linearGradient>
<linearGradient id="paint1_linear_0_127" x1="7.19366" y1="74.5029" x2="12.5085" y2="86.8625" gradientUnits="userSpaceOnUse">
<stop stop-color="#FAD961"/>
<stop offset="1" stop-color="#FF52C1"/>
</linearGradient>
<linearGradient id="paint2_linear_0_127" x1="12.0945" y1="47.0806" x2="12.0945" y2="55.7889" gradientUnits="userSpaceOnUse">
<stop stop-color="#00C7FA"/>
<stop offset="1" stop-color="#007DFA"/>
</linearGradient>
<linearGradient id="paint3_linear_0_127" x1="12.0945" y1="87.1389" x2="12.0945" y2="95.8472" gradientUnits="userSpaceOnUse">
<stop stop-color="#00C7FA"/>
<stop offset="1" stop-color="#007DFA"/>
</linearGradient>
<linearGradient id="paint4_linear_0_127" x1="9.76532" y1="63.0993" x2="15.0868" y2="72.8031" gradientUnits="userSpaceOnUse">
<stop stop-color="#FF52C1"/>
<stop offset="1" stop-color="#9952FF"/>
</linearGradient>
<linearGradient id="paint5_linear_0_127" x1="9.76532" y1="103.158" x2="15.0868" y2="112.861" gradientUnits="userSpaceOnUse">
<stop stop-color="#FF52C1"/>
<stop offset="1" stop-color="#9952FF"/>
</linearGradient>
<linearGradient id="paint6_linear_0_127" x1="7.19366" y1="114.561" x2="12.5085" y2="126.921" gradientUnits="userSpaceOnUse">
<stop stop-color="#FAD961"/>
<stop offset="1" stop-color="#FF52C1"/>
</linearGradient>
<linearGradient id="paint7_linear_0_127" x1="12.0945" y1="127.197" x2="12.0945" y2="135.906" gradientUnits="userSpaceOnUse">
<stop stop-color="#00C7FA"/>
<stop offset="1" stop-color="#007DFA"/>
</linearGradient>
</defs>
</svg>
